<?xml version="1.0" encoding="utf-8"?>
<!-- Generator: Adobe Illustrator 27.0.0, SVG Export Plug-In . SVG Version: 6.00 Build 0)  -->
<svg version="1.1" id="Layer_1" xmlns="http://www.w3.org/2000/svg" xmlns:xlink="http://www.w3.org/1999/xlink" x="0px" y="0px"
	 width="256px" height="256px" viewBox="0 0 256 256" style="enable-background:new 0 0 256 256;" xml:space="preserve">
<style type="text/css">
	.st0{fill:url(#SVGID_1_);}
	.st1{fill:#FEFEFE;}
</style>
<g>
	
		<linearGradient id="SVGID_1_" gradientUnits="userSpaceOnUse" x1="-19.0216" y1="45.117" x2="257.5254" y2="204.7815" gradientTransform="matrix(1 0 0 -1 0 258)">
		<stop  offset="0" style="stop-color:#A01602"/>
		<stop  offset="1" style="stop-color:#000000"/>
	</linearGradient>
	<path class="st0" d="M60,0h136c33.1,0,60,26.9,60,60v136c0,33.1-26.9,60-60,60H60c-33.1,0-60-26.9-60-60V60C0,26.9,26.9,0,60,0z"/>
</g>
<g>
	<path class="st1" d="M165.2,89.8c0.1-0.7,0.1-1.4,0.2-2.1c0.6-3,2-5.4,4.3-7.3c2.3-1.6,4.8-2.3,7.6-2.2c6.1,1,9.7,4.7,10.2,10.8
		c0.2,2-0.4,3.9-1.1,5.7c-0.1,0.1-0.1,0.2-0.2,0.3c0,0.4-0.1,0.7-0.5,0.9c-1.4,1.6-2.9,3-4.8,4.1c-1,0.3-2,0.6-3.1,0.9
		c-1,0.2-2,0.2-3,0c-0.9,0.1-1.6-0.5-2.4-0.6c-1.1-0.3-1.8-1-2.7-1.6C167,96.3,165.6,93.3,165.2,89.8z"/>
	<path class="st1" d="M126.9,83.2c1.9,0,3.9,0,5.8,0c2.5,0,5.1,0,7.6,0c2.2,0,4.5,0.1,6.7,0.1c3,1,5,3.3,6.8,5.7
		c0.9,1.3,1.8,2.6,2.7,4c0.3,0.2,0.4,0.6,0.6,1c0.1,0.4,0.2,0.7,0.6,0.9c0.4,0.2,0.5,0.6,0.7,1c0.1,0.4,0.2,0.7,0.5,0.9
		c0.5,0.2,0.5,0.6,0.7,1c1.5,2.6,3.1,5.1,4.9,7.5c0.4,0.2,0.4,0.6,0.6,1c0.1,0.4,0.2,0.7,0.5,0.9c0.4,0.2,0.5,0.6,0.7,1
		c0,0.4,0.3,0.6,0.5,0.9c0.5,0.2,0.6,0.6,0.7,1c0.4,0.7,0.7,1.4,1.2,2c0.8,0.9,1,1.8,0.3,2.9c-1.3,2.1-2.5,4.3-3.6,6.5
		c-0.7,1.3-1.5,2.5-2.3,3.9c-6.7-9.8-13.3-19.5-19.9-29.3c-2.9-0.5-5.7,0-8.6-0.3c-0.2,0.6,0.3,0.9,0.5,1.3
		c7.2,10.6,14.3,21.3,21.5,31.9c1.1,1.6,1.5,3.3,1.4,5.1c-0.5,1.8-1.7,3.3-2.4,5c-1.6,2.5-3,5.1-4.3,7.8c-0.2,0.3-0.3,0.5-0.5,0.8
		c-0.1,0.9-0.4,1.6-1.1,2.1c-1.6,2.4-2.6,5.1-4.5,7.3c-1.6,1.2-3.4,1.8-5.4,1.5c-2.4-0.3-3.7-2-5-3.8c-4.4-6.5-8.7-12.9-13.1-19.4
		c-3.3-4.9-6.5-9.8-9.8-14.7c-5.3-7.9-10.6-15.7-15.9-23.6c-0.6-0.9-1.2-1.3-2.3-1.3c-2.4,0.1-4.8,0-7.2,0c-0.3,0.6,0.2,0.9,0.5,1.2
		c16.3,24.2,32.6,48.3,48.9,72.5c1,1.5,1.7,2.8,0.4,4.4c-0.3,0.3-0.5,0.7-0.6,1.1c-0.1,0.4-0.3,0.8-0.6,1.1
		c-1.4,2.2-2.6,4.4-3.7,6.7c-0.2,0-0.2,0.2-0.2,0.3c0,0.4-0.1,0.7-0.5,0.9c-1.8-1.9-3-4.2-4.5-6.3c-4.4-6.4-8.7-12.9-13-19.3
		c-4.6-6.8-9.2-13.5-13.8-20.3c-4.8-7.1-9.6-14.3-14.4-21.5c-4.2-6.2-8.5-12.5-12.7-18.7c-1-1.5-2-3.1-3.1-4.6
		c-0.3-0.1-0.2-0.4-0.3-0.6c-1.2-3.4-0.5-6.2,2.4-8.5c2.3-1.2,4.9-0.9,7.4-0.9c0.6,0,1.2,0,1.8,0c2.4,0,4.9,0,7.3,0
		c1.9,0,3.9,0,5.8,0c2.1,0.2,4.3-0.2,6.4,0.2c1.8,0.5,3.1,1.7,4.2,3.3c6,8.9,12,17.8,18,26.7c0.3,0.5,0.7,0.9,1,1.3
		c0.3,0.3,0.8,0.6,0.7,1.1c0.2,0.2,0.3,0.5,0.5,0.7c0.3,0.4,0.7,0.6,0.7,1.1c0.2,0.3,0.5,0.7,0.7,1c0.5,0.2,0.6,0.6,0.7,1
		c0.1,0.3,0.3,0.6,0.5,0.8c0.5,0.2,0.5,0.6,0.7,1c0.1,0.4,0.3,0.6,0.5,0.8c0.5,0.2,0.5,0.6,0.7,1c0.1,0.4,0.2,0.6,0.6,0.8
		c0.4,0.2,0.5,0.6,0.7,1c0.1,0.4,0.2,0.7,0.6,0.9c0.4,0.2,0.5,0.6,0.7,1c0.1,0.4,0.3,0.7,0.6,0.9c0.4,0.2,0.5,0.6,0.6,1
		c0.1,0.3,0.2,0.7,0.6,0.9c0.4,0.2,0.4,0.6,0.7,0.9c1.4,2.3,2.9,4.6,4.6,6.8c0.5,1,1.2,2,2,2.9c1.2-2.2,2.3-4.3,3.6-6.4
		c0.5-0.8-0.1-1.2-0.4-1.7c-8.4-12.4-16.7-24.9-25.2-37.3c-1.6-2.3-2-4.7-1.4-7.4c0.7-1.9,2.1-3.1,3.8-3.9c1.4-1.2,2.9-1.1,4.5-0.4
		C125.9,83.2,126.4,83.2,126.9,83.2z"/>
</g>
</svg>
