<?xml version="1.0" encoding="utf-8"?>
<!-- Generator: Adobe Illustrator 27.0.0, SVG Export Plug-In . SVG Version: 6.00 Build 0)  -->
<svg width="48" height="48"  version="1.0" id="Layer_1" xmlns="http://www.w3.org/2000/svg" xmlns:xlink="http://www.w3.org/1999/xlink" x="0px" y="0px"
	 viewBox="0 0 256 256" enable-background="new 0 0 256 256">
<linearGradient id="SVGID_1_" gradientUnits="userSpaceOnUse" x1="128" y1="-13.6195" x2="128" y2="253.7066">
	<stop  offset="0" style="stop-color:#82C783"/>
	<stop  offset="1" style="stop-color:#51B95E"/>
</linearGradient>
<path fill="url(#SVGID_1_)" d="M60,0.5h136c33.1,0,60,26.9,60,60v136c0,33.1-26.9,60-60,60H60c-33.1,0-60-26.9-60-60v-136
	C0,27.4,26.9,0.5,60,0.5z"/>
<path fill="#FFFFFF" d="M47.1,180.6c0.7-2.4,1.4-4.8,2.1-7.2c0.2-0.6,0-1.1-0.3-1.6c-1.2-2.1-2.3-4.3-3.4-6.5c-1.5-4-3-8.1-4.6-12.1
	c-0.7-2.8-1.4-5.5-2.1-8.3c-0.3-2.3-0.6-4.6-1-7c-0.3-0.7,0.1-1.6-0.3-2.3c0.1-0.1,0.1-0.2,0-0.3c0-4.9,0-9.9-0.1-14.8
	c0.3-2.5,0.6-4.9,0.9-7.4c1.2-4.9,2.4-9.8,3.5-14.7c0.1-0.3,0.3-0.6,0.4-1c1.8-4,3.2-8.2,5.3-12.1c2.8-4.9,5.9-9.5,9.1-14.1
	c1.5-1.7,3.2-3.3,4.5-5.1c2.1-2.9,4.9-5,7.2-7.6c4.9-3.9,9.9-7.6,15.4-10.7c1.1-0.6,2.2-1.3,3.3-1.9c5.9-2.6,11.8-5.2,18.2-6.7
	c2.8-0.7,5.6-1.3,8.4-1.9c5.5-0.4,10.9-1.2,16.4-0.9c3.8,0.2,7.6,0.6,11.4,0.9c4.3,1.1,8.6,1.7,12.9,2.9c5.6,1.7,11,4.1,16.3,6.6
	c5.2,3.1,10.4,6.4,15.2,10.2c4,3.6,8,7.3,11.3,11.6c1.6,0.6,2.2,2.2,3.2,3.3c1.7,2,3.1,4.3,4.6,6.5c3,4.4,5.2,9.2,7.4,14.1
	c1.6,3.9,2.9,7.8,4,11.8c1,3.6,1.6,7.4,2.2,11.1c1,5.6,0.5,11.2,0.6,16.8c0.2,1.9-0.4,3.8-0.4,5.7c-0.5,3.2-0.9,6.5-1.7,9.7
	c-0.8,3.6-1.9,7-3.1,10.5c-1.4,3.9-3,7.7-4.9,11.3c-2.7,4.6-5.3,9.2-8.7,13.3c-0.8,1-1.4,2.2-2.7,2.7c-6,6.7-12.5,12.8-20.1,17.6
	c-1.7,1.1-3.4,2.2-5.1,3.2c-6.2,3.1-12.5,6.1-19.2,7.9c-23,6.2-45.3,4.2-66.6-6.6c-1.3-0.7-2.4-0.8-3.9-0.4
	c-14.6,3.9-29.2,7.7-43.8,11.5c-0.6,0.2-1.3,0.7-1.8,0.1c-0.3-0.5-0.1-1.2,0.2-1.8c0.6-1.6,0.9-3.2,1.3-4.8
	c1.9-5.8,3.4-11.7,4.9-17.7C44.7,190,46,185.4,47.1,180.6z"/>
<linearGradient id="SVGID_00000044856895092891727910000006253193123389690011_" gradientUnits="userSpaceOnUse" x1="48.8238" y1="127.9604" x2="207" y2="127.9604">
	<stop  offset="0" style="stop-color:#82C783"/>
	<stop  offset="1" style="stop-color:#51B95E"/>
</linearGradient>
<path fill="url(#SVGID_00000044856895092891727910000006253193123389690011_)" d="M57.8,173.6c0.6-2.1,1.2-4.2,1.8-6.2
	c0.1-0.5,0-1-0.3-1.4c-1-1.9-2-3.7-3-5.6c-1.3-3.5-2.6-7-4-10.5c-0.6-2.4-1.2-4.8-1.8-7.2c-0.3-2-0.6-4-0.8-6
	c-0.3-0.6,0.1-1.4-0.3-2c0.1-0.1,0.1-0.2,0-0.3c0-4.3,0-8.5-0.1-12.8c0.3-2.1,0.5-4.3,0.8-6.4c1-4.2,2-8.5,3.1-12.7
	c0.1-0.3,0.2-0.6,0.4-0.8c1.6-3.5,2.8-7.1,4.6-10.5c2.4-4.2,5.1-8.2,7.9-12.2c1.3-1.5,2.8-2.8,3.9-4.4c1.8-2.5,4.2-4.3,6.3-6.6
	c4.3-3.4,8.6-6.6,13.3-9.3c1-0.5,1.9-1.1,2.9-1.6c5.1-2.2,10.3-4.5,15.8-5.8c2.4-0.6,4.8-1.1,7.3-1.7c4.7-0.4,9.5-1,14.2-0.8
	c3.3,0.2,6.6,0.5,9.9,0.7c3.7,0.9,7.5,1.5,11.2,2.5c4.9,1.4,9.5,3.5,14.1,5.7c4.5,2.7,9,5.5,13.2,8.8c3.5,3.1,7,6.3,9.8,10.1
	c1.4,0.5,1.9,1.9,2.8,2.9c1.5,1.7,2.6,3.8,4,5.7c2.6,3.8,4.5,8,6.4,12.2c1.4,3.3,2.6,6.8,3.4,10.3c0.9,3.2,1.3,6.4,1.9,9.6
	c0.8,4.8,0.4,9.7,0.5,14.6c0.2,1.7-0.4,3.3-0.4,5c-0.4,2.8-0.8,5.6-1.5,8.4c-0.7,3.1-1.7,6.1-2.7,9.1c-1.2,3.3-2.6,6.6-4.3,9.8
	c-2.3,4-4.6,8-7.5,11.6c-0.7,0.9-1.2,1.9-2.3,2.3c-5.2,5.8-10.9,11.1-17.5,15.3c-1.5,0.9-2.9,1.9-4.4,2.8
	c-5.4,2.7-10.8,5.2-16.7,6.8c-20,5.3-39.3,3.7-57.8-5.7c-1.1-0.6-2.1-0.7-3.4-0.4c-12.7,3.4-25.3,6.6-38,10
	c-0.5,0.1-1.1,0.6-1.5,0.1c-0.3-0.4,0-1,0.2-1.6c0.5-1.4,0.8-2.8,1.2-4.2c1.6-5.1,3-10.2,4.2-15.4C55.8,181.8,56.9,177.7,57.8,173.6
	z"/>
<path fill="#FFFFFF" d="M82.7,99.7c1-2.5,2.1-5,3.5-7.3c1.3-1.4,2.6-2.9,3.9-4.3c1.3-1.3,2.9-2.2,4.7-2.4c1.4-0.2,2.9-0.2,4.3,0
	c3.3-0.3,5,1.5,6.1,4.3c0.3,0.9,0.8,1.8,1.2,2.7c1.5,4.3,3.3,8.5,5.2,12.6c2.3,4.7-0.9,7.7-3.4,10.9c-0.1,0-0.2,0-0.2,0.1
	c-4,5.2-3.9,5.9,1.4,12.1c2.7,4.1,5.9,7.6,9.7,10.7c0.8,0,1.3,0.5,1.9,1c4.6,3.8,9.8,6.7,15.3,8.9c2.3,0.9,3.3,0.7,5-1.1
	c2-2.3,4-4.6,5.6-7.1c0.4-0.7,0.8-1.4,1.8-1.4c1.4-1.1,3-1.2,4.6-0.5c1.6,0.7,3.3,1.4,4.9,2.1c3.9,1.9,7.9,3.9,11.8,5.8
	c4.1,2,4.4,2.7,3.7,7.1c-0.1,0.5-0.1,1-0.2,1.5c-0.7,4.5-3,8.1-6.7,10.8c-8.9,6-18.3,6-28,2.3c-2.5-0.9-5-1.8-7.5-2.7
	c-6.8-3-13.1-6.8-19-11.4c-5-4.3-9.6-9-14.1-13.8c-4.2-5.3-8.3-10.7-11.8-16.5c-1.5-3.3-3-6.5-4-10C81.5,109.3,81.6,104.5,82.7,99.7
	z"/>
</svg>
